<svg width="30" height="30" viewBox="0 0 30 30" fill="none" xmlns="http://www.w3.org/2000/svg">
<path d="M25.1062 4.01718C24.0797 2.99061 22.4203 2.99061 21.3937 4.01718L20.25 5.16093L24.8391 9.74999L25.9828 8.60624C27.0094 7.57968 27.0094 5.9203 25.9828 4.89374L25.1062 4.01718ZM11.0812 14.3297C10.7953 14.6156 10.575 14.9672 10.4484 15.3562L9.06094 19.5187C8.925 19.9219 9.03281 20.3672 9.33281 20.6719C9.63281 20.9765 10.0781 21.0797 10.4859 20.9437L14.6484 19.5562C15.0328 19.4297 15.3844 19.2094 15.675 18.9234L23.25 11.339L18.6609 6.74999L11.0812 14.3297ZM7.5 5.99999C5.01562 5.99999 3 8.01561 3 10.5V22.5C3 24.9844 5.01562 27 7.5 27H19.5C21.9844 27 24 24.9844 24 22.5V18C24 17.1703 23.3297 16.5 22.5 16.5C21.6703 16.5 21 17.1703 21 18V22.5C21 23.3297 20.3297 24 19.5 24H7.5C6.67031 24 6 23.3297 6 22.5V10.5C6 9.6703 6.67031 8.99999 7.5 8.99999H12C12.8297 8.99999 13.5 8.32967 13.5 7.49999C13.5 6.6703 12.8297 5.99999 12 5.99999H7.5Z" fill="#667085"/>
</svg>
